<svg xmlns="http://www.w3.org/2000/svg" xmlns:xlink="http://www.w3.org/1999/xlink" width="500" zoomAndPan="magnify" viewBox="0 0 375 374.999991" height="500" preserveAspectRatio="xMidYMid meet" version="1.0"><defs><g/><clipPath id="e98be96b3f"><path d="M 30.925781 60.136719 L 344.363281 60.136719 L 344.363281 314.863281 L 30.925781 314.863281 Z M 30.925781 60.136719 " clip-rule="nonzero"/></clipPath><clipPath id="57068f74b6"><path d="M 64.675781 60.136719 L 310.324219 60.136719 C 328.960938 60.136719 344.074219 75.246094 344.074219 93.886719 L 344.074219 281.113281 C 344.074219 299.753906 328.960938 314.863281 310.324219 314.863281 L 64.675781 314.863281 C 46.039062 314.863281 30.925781 299.753906 30.925781 281.113281 L 30.925781 93.886719 C 30.925781 75.246094 46.039062 60.136719 64.675781 60.136719 Z M 64.675781 60.136719 " clip-rule="nonzero"/></clipPath><clipPath id="ebcfa14914"><path d="M 0.925781 0.136719 L 314.160156 0.136719 L 314.160156 254.863281 L 0.925781 254.863281 Z M 0.925781 0.136719 " clip-rule="nonzero"/></clipPath><clipPath id="0e956058f5"><path d="M 34.675781 0.136719 L 280.324219 0.136719 C 298.960938 0.136719 314.074219 15.246094 314.074219 33.886719 L 314.074219 221.113281 C 314.074219 239.753906 298.960938 254.863281 280.324219 254.863281 L 34.675781 254.863281 C 16.039062 254.863281 0.925781 239.753906 0.925781 221.113281 L 0.925781 33.886719 C 0.925781 15.246094 16.039062 0.136719 34.675781 0.136719 Z M 34.675781 0.136719 " clip-rule="nonzero"/></clipPath><clipPath id="2182116afb"><rect x="0" width="315" y="0" height="255"/></clipPath><clipPath id="35ba4b28ad"><rect x="0" width="273" y="0" height="128"/></clipPath><clipPath id="e63d856c85"><rect x="0" width="263" y="0" height="53"/></clipPath><clipPath id="c3b225e119"><rect x="0" width="147" y="0" height="52"/></clipPath></defs><rect x="-37.5" width="450" fill="#ffffff" y="-37.499999" height="449.999989" fill-opacity="1"/><rect x="-37.5" width="450" fill="#ffffff" y="-37.499999" height="449.999989" fill-opacity="1"/><g clip-path="url(#e98be96b3f)"><g clip-path="url(#57068f74b6)"><g transform="matrix(1, 0, 0, 1, 30, 60)"><g clip-path="url(#2182116afb)"><g clip-path="url(#ebcfa14914)"><g clip-path="url(#0e956058f5)"><path fill="#77966d" d="M 0.925781 0.136719 L 314.363281 0.136719 L 314.363281 254.863281 L 0.925781 254.863281 Z M 0.925781 0.136719 " fill-opacity="1" fill-rule="nonzero"/></g></g></g></g></g></g><g transform="matrix(1, 0, 0, 1, 51, 78)"><g clip-path="url(#35ba4b28ad)"><g fill="#ffffff" fill-opacity="1"><g transform="translate(1.630275, 100.570813)"><g><path d="M 65.734375 -63.578125 C 72.410156 -63.578125 78.109375 -61.21875 82.828125 -56.5 C 87.535156 -51.789062 89.890625 -46.09375 89.890625 -39.40625 L 89.890625 -5.78125 C 89.890625 -4.21875 89.316406 -2.863281 88.171875 -1.71875 C 87.023438 -0.570312 85.628906 0 83.984375 0 C 82.429688 0 81.082031 -0.570312 79.9375 -1.71875 C 78.78125 -2.863281 78.203125 -4.21875 78.203125 -5.78125 L 78.203125 -39.40625 C 78.203125 -42.894531 76.992188 -45.847656 74.578125 -48.265625 C 72.160156 -50.679688 69.210938 -51.890625 65.734375 -51.890625 C 62.242188 -51.890625 59.289062 -50.679688 56.875 -48.265625 C 54.457031 -45.847656 53.25 -42.894531 53.25 -39.40625 L 53.25 -5.78125 C 53.25 -4.21875 52.675781 -2.863281 51.53125 -1.71875 C 50.375 -0.570312 49.019531 0 47.46875 0 C 45.863281 0 44.507812 -0.570312 43.40625 -1.71875 C 42.257812 -2.820312 41.6875 -4.175781 41.6875 -5.78125 L 41.6875 -39.40625 C 41.6875 -42.851562 40.476562 -45.804688 38.0625 -48.265625 C 35.601562 -50.679688 32.648438 -51.890625 29.203125 -51.890625 C 25.722656 -51.890625 22.773438 -50.679688 20.359375 -48.265625 C 17.929688 -45.847656 16.71875 -42.894531 16.71875 -39.40625 L 16.71875 -5.78125 C 16.71875 -4.21875 16.144531 -2.863281 15 -1.71875 C 13.851562 -0.570312 12.460938 0 10.828125 0 C 9.265625 0 7.910156 -0.570312 6.765625 -1.71875 C 5.617188 -2.863281 5.046875 -4.21875 5.046875 -5.78125 L 5.046875 -39.40625 C 5.046875 -46.09375 7.398438 -51.789062 12.109375 -56.5 C 16.828125 -61.21875 22.523438 -63.578125 29.203125 -63.578125 C 32.804688 -63.578125 36.1875 -62.835938 39.34375 -61.359375 C 42.5 -59.847656 45.207031 -57.78125 47.46875 -55.15625 C 49.71875 -57.78125 52.421875 -59.847656 55.578125 -61.359375 C 58.734375 -62.835938 62.117188 -63.578125 65.734375 -63.578125 Z M 65.734375 -63.578125 "/></g></g></g><g fill="#ffffff" fill-opacity="1"><g transform="translate(96.557712, 100.570813)"><g><path d="M 11.3125 -63.578125 C 12.945312 -63.578125 14.34375 -63.003906 15.5 -61.859375 C 16.601562 -60.703125 17.15625 -59.304688 17.15625 -57.671875 L 17.15625 -5.78125 C 17.15625 -4.21875 16.601562 -2.863281 15.5 -1.71875 C 14.34375 -0.570312 12.945312 0 11.3125 0 C 9.757812 0 8.40625 -0.570312 7.25 -1.71875 C 6.101562 -2.863281 5.53125 -4.21875 5.53125 -5.78125 L 5.53125 -57.671875 C 5.53125 -59.304688 6.101562 -60.703125 7.25 -61.859375 C 8.40625 -63.003906 9.757812 -63.578125 11.3125 -63.578125 Z M 11.3125 -82.328125 C 13.070312 -82.328125 14.566406 -81.734375 15.796875 -80.546875 C 17.023438 -79.316406 17.640625 -77.820312 17.640625 -76.0625 C 17.640625 -74.289062 17.023438 -72.8125 15.796875 -71.625 C 14.566406 -70.394531 13.070312 -69.78125 11.3125 -69.78125 C 9.550781 -69.78125 8.078125 -70.394531 6.890625 -71.625 C 5.660156 -72.8125 5.046875 -74.289062 5.046875 -76.0625 C 5.046875 -77.820312 5.660156 -79.316406 6.890625 -80.546875 C 8.078125 -81.734375 9.550781 -82.328125 11.3125 -82.328125 Z M 11.3125 -82.328125 "/></g></g></g><g fill="#ffffff" fill-opacity="1"><g transform="translate(119.182905, 100.570813)"><g><path d="M 34.375 -63.578125 C 38.507812 -63.578125 42.503906 -62.71875 46.359375 -61 C 50.171875 -59.226562 53.472656 -56.765625 56.265625 -53.609375 C 57.285156 -52.460938 57.796875 -51.210938 57.796875 -49.859375 C 57.796875 -48.390625 57.242188 -47.039062 56.140625 -45.8125 C 54.992188 -44.582031 53.617188 -43.96875 52.015625 -43.96875 C 50.296875 -43.96875 48.820312 -44.640625 47.59375 -45.984375 C 44.019531 -49.921875 39.613281 -51.890625 34.375 -51.890625 C 29.445312 -51.890625 25.285156 -50.171875 21.890625 -46.734375 C 18.441406 -43.285156 16.71875 -39.125 16.71875 -34.25 L 16.71875 -5.78125 C 16.71875 -4.21875 16.144531 -2.863281 15 -1.71875 C 13.851562 -0.570312 12.460938 0 10.828125 0 C 9.265625 0 7.910156 -0.570312 6.765625 -1.71875 C 5.617188 -2.863281 5.046875 -4.21875 5.046875 -5.78125 L 5.046875 -34.25 C 5.046875 -38.226562 5.820312 -42.019531 7.375 -45.625 C 8.894531 -49.226562 10.96875 -52.34375 13.59375 -54.96875 C 16.207031 -57.59375 19.34375 -59.679688 23 -61.234375 C 26.601562 -62.796875 30.394531 -63.578125 34.375 -63.578125 Z M 34.375 -63.578125 "/></g></g></g><g fill="#ffffff" fill-opacity="1"><g transform="translate(176.913811, 100.570813)"><g><path d="M 34.859375 -51.890625 C 29.328125 -51.890625 24.613281 -49.921875 20.71875 -45.984375 C 16.820312 -42.015625 14.875 -37.257812 14.875 -31.71875 C 14.875 -26.1875 16.820312 -21.472656 20.71875 -17.578125 C 24.613281 -13.648438 29.328125 -11.6875 34.859375 -11.6875 C 40.390625 -11.6875 45.144531 -13.648438 49.125 -17.578125 C 53.0625 -21.472656 55.03125 -26.1875 55.03125 -31.71875 C 55.03125 -37.257812 53.0625 -42.015625 49.125 -45.984375 C 45.144531 -49.921875 40.390625 -51.890625 34.859375 -51.890625 Z M 34.859375 -63.578125 C 40.597656 -63.578125 45.90625 -62.179688 50.78125 -59.390625 C 55.664062 -56.566406 59.539062 -52.710938 62.40625 -47.828125 C 65.28125 -42.910156 66.71875 -37.539062 66.71875 -31.71875 L 66.71875 -5.78125 C 66.71875 -4.21875 66.140625 -2.863281 64.984375 -1.71875 C 63.835938 -0.570312 62.445312 0 60.8125 0 C 59.25 0 57.894531 -0.570312 56.75 -1.71875 C 55.601562 -2.863281 55.03125 -4.21875 55.03125 -5.78125 L 55.03125 -7.1875 C 49.332031 -2.394531 42.609375 0 34.859375 0 C 29.117188 0 23.8125 -1.414062 18.9375 -4.25 C 14.0625 -7.070312 10.207031 -10.921875 7.375 -15.796875 C 4.550781 -20.679688 3.140625 -25.988281 3.140625 -31.71875 C 3.140625 -37.457031 4.550781 -42.789062 7.375 -47.71875 C 10.207031 -52.59375 14.0625 -56.460938 18.9375 -59.328125 C 23.8125 -62.160156 29.117188 -63.578125 34.859375 -63.578125 Z M 34.859375 -63.578125 "/></g></g></g><g fill="#ffffff" fill-opacity="1"><g transform="translate(248.662723, 100.570813)"><g><path d="M 11.3125 -63.578125 C 12.945312 -63.578125 14.34375 -63.003906 15.5 -61.859375 C 16.601562 -60.703125 17.15625 -59.304688 17.15625 -57.671875 L 17.15625 -5.78125 C 17.15625 -4.21875 16.601562 -2.863281 15.5 -1.71875 C 14.34375 -0.570312 12.945312 0 11.3125 0 C 9.757812 0 8.40625 -0.570312 7.25 -1.71875 C 6.101562 -2.863281 5.53125 -4.21875 5.53125 -5.78125 L 5.53125 -57.671875 C 5.53125 -59.304688 6.101562 -60.703125 7.25 -61.859375 C 8.40625 -63.003906 9.757812 -63.578125 11.3125 -63.578125 Z M 11.3125 -82.328125 C 13.070312 -82.328125 14.566406 -81.734375 15.796875 -80.546875 C 17.023438 -79.316406 17.640625 -77.820312 17.640625 -76.0625 C 17.640625 -74.289062 17.023438 -72.8125 15.796875 -71.625 C 14.566406 -70.394531 13.070312 -69.78125 11.3125 -69.78125 C 9.550781 -69.78125 8.078125 -70.394531 6.890625 -71.625 C 5.660156 -72.8125 5.046875 -74.289062 5.046875 -76.0625 C 5.046875 -77.820312 5.660156 -79.316406 6.890625 -80.546875 C 8.078125 -81.734375 9.550781 -82.328125 11.3125 -82.328125 Z M 11.3125 -82.328125 "/></g></g></g></g></g><g transform="matrix(1, 0, 0, 1, 56, 189)"><g clip-path="url(#e63d856c85)"><g fill="#ffffff" fill-opacity="1"><g transform="translate(1.077803, 40.200507)"><g><path d="M 14.09375 -25.6875 C 16.34375 -25.6875 18.460938 -25.125 20.453125 -24 C 22.441406 -22.863281 24.023438 -21.304688 25.203125 -19.328125 C 25.398438 -18.984375 25.5 -18.597656 25.5 -18.171875 C 25.5 -17.253906 25.09375 -16.570312 24.28125 -16.125 L 8.34375 -7.125 C 9.957031 -5.519531 11.875 -4.71875 14.09375 -4.71875 C 15.53125 -4.71875 16.878906 -5.078125 18.140625 -5.796875 C 19.378906 -6.503906 20.375 -7.472656 21.125 -8.703125 C 21.570312 -9.472656 22.25 -9.859375 23.15625 -9.859375 C 23.789062 -9.859375 24.335938 -9.628906 24.796875 -9.171875 C 25.265625 -8.703125 25.5 -8.140625 25.5 -7.484375 C 25.5 -7.046875 25.398438 -6.65625 25.203125 -6.3125 C 24.023438 -4.375 22.441406 -2.84375 20.453125 -1.71875 C 18.460938 -0.570312 16.34375 0 14.09375 0 C 11.769531 0 9.625 -0.570312 7.65625 -1.71875 C 5.6875 -2.851562 4.128906 -4.410156 2.984375 -6.390625 C 1.835938 -8.359375 1.265625 -10.503906 1.265625 -12.828125 C 1.265625 -15.140625 1.835938 -17.289062 2.984375 -19.28125 C 4.128906 -21.25 5.6875 -22.816406 7.65625 -23.984375 C 9.625 -25.117188 11.769531 -25.6875 14.09375 -25.6875 Z M 14.09375 -20.96875 C 11.851562 -20.96875 9.945312 -20.175781 8.375 -18.59375 C 6.800781 -16.976562 6.015625 -15.054688 6.015625 -12.828125 C 6.015625 -12.472656 6.046875 -11.96875 6.109375 -11.3125 L 19.578125 -18.828125 C 18.054688 -20.253906 16.226562 -20.96875 14.09375 -20.96875 Z M 14.09375 -20.96875 "/></g></g></g><g fill="#ffffff" fill-opacity="1"><g transform="translate(27.340911, 40.200507)"><g><path d="M 2.1875 -23.3125 C 2.1875 -23.9375 2.414062 -24.484375 2.875 -24.953125 C 3.34375 -25.410156 3.910156 -25.640625 4.578125 -25.640625 C 5.335938 -25.640625 5.929688 -25.367188 6.359375 -24.828125 L 12.421875 -17.71875 L 18.59375 -24.828125 C 19.019531 -25.367188 19.601562 -25.640625 20.34375 -25.640625 C 20.976562 -25.640625 21.535156 -25.414062 22.015625 -24.96875 C 22.492188 -24.519531 22.734375 -23.96875 22.734375 -23.3125 C 22.734375 -22.757812 22.550781 -22.253906 22.1875 -21.796875 L 15.53125 -14.046875 L 24.28125 -3.875 C 24.644531 -3.414062 24.828125 -2.898438 24.828125 -2.328125 C 24.828125 -1.722656 24.601562 -1.1875 24.15625 -0.71875 C 23.6875 -0.238281 23.128906 0 22.484375 0 C 21.691406 0 21.082031 -0.269531 20.65625 -0.8125 L 12.421875 -10.4375 L 4.125 -0.8125 C 3.695312 -0.269531 3.097656 0 2.328125 0 C 1.734375 0 1.195312 -0.234375 0.71875 -0.703125 C 0.238281 -1.140625 0 -1.679688 0 -2.328125 C 0 -2.859375 0.191406 -3.375 0.578125 -3.875 L 9.3125 -14.046875 L 2.765625 -21.796875 C 2.378906 -22.285156 2.1875 -22.789062 2.1875 -23.3125 Z M 2.1875 -23.3125 "/></g></g></g><g fill="#ffffff" fill-opacity="1"><g transform="translate(52.162954, 40.200507)"><g><path d="M 14.859375 -25.6875 C 17.179688 -25.6875 19.335938 -25.117188 21.328125 -23.984375 C 23.296875 -22.816406 24.859375 -21.25 26.015625 -19.28125 C 27.160156 -17.289062 27.734375 -15.140625 27.734375 -12.828125 C 27.734375 -10.503906 27.160156 -8.359375 26.015625 -6.390625 C 24.859375 -4.410156 23.296875 -2.851562 21.328125 -1.71875 C 19.335938 -0.570312 17.179688 0 14.859375 0 C 11.765625 0 9.066406 -0.96875 6.765625 -2.90625 L 6.765625 8.59375 C 6.765625 9.257812 6.53125 9.816406 6.0625 10.265625 C 5.601562 10.710938 5.039062 10.9375 4.375 10.9375 C 3.726562 10.9375 3.179688 10.703125 2.734375 10.234375 C 2.265625 9.785156 2.03125 9.238281 2.03125 8.59375 L 2.03125 -12.828125 C 2.03125 -15.140625 2.601562 -17.289062 3.75 -19.28125 C 4.894531 -21.25 6.453125 -22.816406 8.421875 -23.984375 C 10.390625 -25.117188 12.535156 -25.6875 14.859375 -25.6875 Z M 14.859375 -20.96875 C 12.617188 -20.96875 10.710938 -20.175781 9.140625 -18.59375 C 7.554688 -16.976562 6.765625 -15.054688 6.765625 -12.828125 C 6.765625 -10.585938 7.554688 -8.679688 9.140625 -7.109375 C 10.710938 -5.515625 12.617188 -4.71875 14.859375 -4.71875 C 17.097656 -4.71875 19.019531 -5.515625 20.625 -7.109375 C 22.21875 -8.679688 23.015625 -10.585938 23.015625 -12.828125 C 23.015625 -15.054688 22.21875 -16.976562 20.625 -18.59375 C 19.019531 -20.175781 17.097656 -20.96875 14.859375 -20.96875 Z M 14.859375 -20.96875 "/></g></g></g><g fill="#ffffff" fill-opacity="1"><g transform="translate(81.159275, 40.200507)"><g><path d="M 14.09375 -25.6875 C 16.34375 -25.6875 18.460938 -25.125 20.453125 -24 C 22.441406 -22.863281 24.023438 -21.304688 25.203125 -19.328125 C 25.398438 -18.984375 25.5 -18.597656 25.5 -18.171875 C 25.5 -17.253906 25.09375 -16.570312 24.28125 -16.125 L 8.34375 -7.125 C 9.957031 -5.519531 11.875 -4.71875 14.09375 -4.71875 C 15.53125 -4.71875 16.878906 -5.078125 18.140625 -5.796875 C 19.378906 -6.503906 20.375 -7.472656 21.125 -8.703125 C 21.570312 -9.472656 22.25 -9.859375 23.15625 -9.859375 C 23.789062 -9.859375 24.335938 -9.628906 24.796875 -9.171875 C 25.265625 -8.703125 25.5 -8.140625 25.5 -7.484375 C 25.5 -7.046875 25.398438 -6.65625 25.203125 -6.3125 C 24.023438 -4.375 22.441406 -2.84375 20.453125 -1.71875 C 18.460938 -0.570312 16.34375 0 14.09375 0 C 11.769531 0 9.625 -0.570312 7.65625 -1.71875 C 5.6875 -2.851562 4.128906 -4.410156 2.984375 -6.390625 C 1.835938 -8.359375 1.265625 -10.503906 1.265625 -12.828125 C 1.265625 -15.140625 1.835938 -17.289062 2.984375 -19.28125 C 4.128906 -21.25 5.6875 -22.816406 7.65625 -23.984375 C 9.625 -25.117188 11.769531 -25.6875 14.09375 -25.6875 Z M 14.09375 -20.96875 C 11.851562 -20.96875 9.945312 -20.175781 8.375 -18.59375 C 6.800781 -16.976562 6.015625 -15.054688 6.015625 -12.828125 C 6.015625 -12.472656 6.046875 -11.96875 6.109375 -11.3125 L 19.578125 -18.828125 C 18.054688 -20.253906 16.226562 -20.96875 14.09375 -20.96875 Z M 14.09375 -20.96875 "/></g></g></g><g fill="#ffffff" fill-opacity="1"><g transform="translate(107.919376, 40.200507)"><g><path d="M 13.890625 -25.6875 C 15.566406 -25.6875 17.179688 -25.34375 18.734375 -24.65625 C 20.273438 -23.9375 21.609375 -22.941406 22.734375 -21.671875 C 23.148438 -21.203125 23.359375 -20.695312 23.359375 -20.15625 C 23.359375 -19.5625 23.132812 -19.015625 22.6875 -18.515625 C 22.21875 -18.015625 21.660156 -17.765625 21.015625 -17.765625 C 20.328125 -17.765625 19.734375 -18.039062 19.234375 -18.59375 C 17.796875 -20.175781 16.015625 -20.96875 13.890625 -20.96875 C 11.898438 -20.96875 10.21875 -20.273438 8.84375 -18.890625 C 7.457031 -17.492188 6.765625 -15.8125 6.765625 -13.84375 L 6.765625 -2.328125 C 6.765625 -1.703125 6.53125 -1.160156 6.0625 -0.703125 C 5.601562 -0.234375 5.039062 0 4.375 0 C 3.738281 0 3.191406 -0.234375 2.734375 -0.703125 C 2.265625 -1.160156 2.03125 -1.703125 2.03125 -2.328125 L 2.03125 -13.84375 C 2.03125 -15.445312 2.347656 -16.976562 2.984375 -18.4375 C 3.597656 -19.894531 4.429688 -21.15625 5.484375 -22.21875 C 6.546875 -23.28125 7.816406 -24.125 9.296875 -24.75 C 10.753906 -25.375 12.285156 -25.6875 13.890625 -25.6875 Z M 13.890625 -25.6875 "/></g></g></g><g fill="#ffffff" fill-opacity="1"><g transform="translate(132.269322, 40.200507)"><g><path d="M 4.578125 -25.6875 C 5.234375 -25.6875 5.796875 -25.457031 6.265625 -25 C 6.710938 -24.53125 6.9375 -23.96875 6.9375 -23.3125 L 6.9375 -2.328125 C 6.9375 -1.703125 6.710938 -1.160156 6.265625 -0.703125 C 5.796875 -0.234375 5.234375 0 4.578125 0 C 3.941406 0 3.394531 -0.234375 2.9375 -0.703125 C 2.46875 -1.160156 2.234375 -1.703125 2.234375 -2.328125 L 2.234375 -23.3125 C 2.234375 -23.96875 2.46875 -24.53125 2.9375 -25 C 3.394531 -25.457031 3.941406 -25.6875 4.578125 -25.6875 Z M 4.578125 -33.265625 C 5.285156 -33.265625 5.890625 -33.023438 6.390625 -32.546875 C 6.878906 -32.054688 7.125 -31.453125 7.125 -30.734375 C 7.125 -30.023438 6.878906 -29.429688 6.390625 -28.953125 C 5.890625 -28.453125 5.285156 -28.203125 4.578125 -28.203125 C 3.859375 -28.203125 3.257812 -28.453125 2.78125 -28.953125 C 2.28125 -29.429688 2.03125 -30.023438 2.03125 -30.734375 C 2.03125 -31.453125 2.28125 -32.054688 2.78125 -32.546875 C 3.257812 -33.023438 3.859375 -33.265625 4.578125 -33.265625 Z M 4.578125 -33.265625 "/></g></g></g><g fill="#ffffff" fill-opacity="1"><g transform="translate(141.412975, 40.200507)"><g><path d="M 14.09375 -25.6875 C 16.34375 -25.6875 18.460938 -25.125 20.453125 -24 C 22.441406 -22.863281 24.023438 -21.304688 25.203125 -19.328125 C 25.398438 -18.984375 25.5 -18.597656 25.5 -18.171875 C 25.5 -17.253906 25.09375 -16.570312 24.28125 -16.125 L 8.34375 -7.125 C 9.957031 -5.519531 11.875 -4.71875 14.09375 -4.71875 C 15.53125 -4.71875 16.878906 -5.078125 18.140625 -5.796875 C 19.378906 -6.503906 20.375 -7.472656 21.125 -8.703125 C 21.570312 -9.472656 22.25 -9.859375 23.15625 -9.859375 C 23.789062 -9.859375 24.335938 -9.628906 24.796875 -9.171875 C 25.265625 -8.703125 25.5 -8.140625 25.5 -7.484375 C 25.5 -7.046875 25.398438 -6.65625 25.203125 -6.3125 C 24.023438 -4.375 22.441406 -2.84375 20.453125 -1.71875 C 18.460938 -0.570312 16.34375 0 14.09375 0 C 11.769531 0 9.625 -0.570312 7.65625 -1.71875 C 5.6875 -2.851562 4.128906 -4.410156 2.984375 -6.390625 C 1.835938 -8.359375 1.265625 -10.503906 1.265625 -12.828125 C 1.265625 -15.140625 1.835938 -17.289062 2.984375 -19.28125 C 4.128906 -21.25 5.6875 -22.816406 7.65625 -23.984375 C 9.625 -25.117188 11.769531 -25.6875 14.09375 -25.6875 Z M 14.09375 -20.96875 C 11.851562 -20.96875 9.945312 -20.175781 8.375 -18.59375 C 6.800781 -16.976562 6.015625 -15.054688 6.015625 -12.828125 C 6.015625 -12.472656 6.046875 -11.96875 6.109375 -11.3125 L 19.578125 -18.828125 C 18.054688 -20.253906 16.226562 -20.96875 14.09375 -20.96875 Z M 14.09375 -20.96875 "/></g></g></g><g fill="#ffffff" fill-opacity="1"><g transform="translate(168.173077, 40.200507)"><g><path d="M 14.515625 -25.6875 C 16.710938 -25.6875 18.75 -25.140625 20.625 -24.046875 C 22.476562 -22.953125 23.953125 -21.472656 25.046875 -19.609375 C 26.117188 -17.734375 26.65625 -15.695312 26.65625 -13.5 L 26.65625 -2.328125 C 26.65625 -1.679688 26.429688 -1.140625 25.984375 -0.703125 C 25.523438 -0.234375 24.972656 0 24.328125 0 C 23.703125 0 23.15625 -0.234375 22.6875 -0.703125 C 22.21875 -1.160156 21.984375 -1.703125 21.984375 -2.328125 L 21.984375 -13.5 C 21.984375 -15.5625 21.253906 -17.320312 19.796875 -18.78125 C 18.328125 -20.238281 16.566406 -20.96875 14.515625 -20.96875 C 12.460938 -20.96875 10.707031 -20.238281 9.25 -18.78125 C 7.769531 -17.320312 7.03125 -15.5625 7.03125 -13.5 L 7.03125 -2.328125 C 7.03125 -1.703125 6.800781 -1.160156 6.34375 -0.703125 C 5.851562 -0.234375 5.28125 0 4.625 0 C 3.988281 0 3.441406 -0.234375 2.984375 -0.703125 C 2.515625 -1.160156 2.28125 -1.703125 2.28125 -2.328125 L 2.28125 -23.3125 C 2.28125 -23.96875 2.515625 -24.53125 2.984375 -25 C 3.441406 -25.457031 3.988281 -25.6875 4.625 -25.6875 C 5.28125 -25.6875 5.851562 -25.457031 6.34375 -25 C 6.800781 -24.53125 7.03125 -23.96875 7.03125 -23.3125 L 7.03125 -23.109375 C 9.164062 -24.828125 11.660156 -25.6875 14.515625 -25.6875 Z M 14.515625 -25.6875 "/></g></g></g><g fill="#ffffff" fill-opacity="1"><g transform="translate(195.852409, 40.200507)"><g><path d="M 8.046875 -36.65625 C 8.679688 -36.65625 9.226562 -36.421875 9.6875 -35.953125 C 10.15625 -35.472656 10.390625 -34.921875 10.390625 -34.296875 L 10.390625 -25.6875 L 16.28125 -25.6875 C 16.9375 -25.6875 17.5 -25.457031 17.96875 -25 C 18.414062 -24.53125 18.640625 -23.96875 18.640625 -23.3125 C 18.640625 -22.675781 18.40625 -22.128906 17.9375 -21.671875 C 17.476562 -21.203125 16.925781 -20.96875 16.28125 -20.96875 L 10.390625 -20.96875 L 10.390625 -2.328125 C 10.390625 -1.703125 10.15625 -1.160156 9.6875 -0.703125 C 9.226562 -0.234375 8.679688 0 8.046875 0 C 7.390625 0 6.835938 -0.234375 6.390625 -0.703125 C 5.921875 -1.160156 5.6875 -1.703125 5.6875 -2.328125 L 5.6875 -20.96875 L 2.328125 -20.96875 C 1.703125 -20.96875 1.160156 -21.203125 0.703125 -21.671875 C 0.234375 -22.128906 0 -22.675781 0 -23.3125 C 0 -23.96875 0.234375 -24.53125 0.703125 -25 C 1.160156 -25.457031 1.703125 -25.6875 2.328125 -25.6875 L 5.6875 -25.6875 L 5.6875 -34.296875 C 5.6875 -34.941406 5.921875 -35.492188 6.390625 -35.953125 C 6.847656 -36.421875 7.398438 -36.65625 8.046875 -36.65625 Z M 8.046875 -36.65625 "/></g></g></g><g fill="#ffffff" fill-opacity="1"><g transform="translate(214.462732, 40.200507)"><g><path d="M 4.578125 -25.6875 C 5.234375 -25.6875 5.796875 -25.457031 6.265625 -25 C 6.710938 -24.53125 6.9375 -23.96875 6.9375 -23.3125 L 6.9375 -2.328125 C 6.9375 -1.703125 6.710938 -1.160156 6.265625 -0.703125 C 5.796875 -0.234375 5.234375 0 4.578125 0 C 3.941406 0 3.394531 -0.234375 2.9375 -0.703125 C 2.46875 -1.160156 2.234375 -1.703125 2.234375 -2.328125 L 2.234375 -23.3125 C 2.234375 -23.96875 2.46875 -24.53125 2.9375 -25 C 3.394531 -25.457031 3.941406 -25.6875 4.578125 -25.6875 Z M 4.578125 -33.265625 C 5.285156 -33.265625 5.890625 -33.023438 6.390625 -32.546875 C 6.878906 -32.054688 7.125 -31.453125 7.125 -30.734375 C 7.125 -30.023438 6.878906 -29.429688 6.390625 -28.953125 C 5.890625 -28.453125 5.285156 -28.203125 4.578125 -28.203125 C 3.859375 -28.203125 3.257812 -28.453125 2.78125 -28.953125 C 2.28125 -29.429688 2.03125 -30.023438 2.03125 -30.734375 C 2.03125 -31.453125 2.28125 -32.054688 2.78125 -32.546875 C 3.257812 -33.023438 3.859375 -33.265625 4.578125 -33.265625 Z M 4.578125 -33.265625 "/></g></g></g><g fill="#ffffff" fill-opacity="1"><g transform="translate(223.606385, 40.200507)"><g><path d="M 14.09375 -20.96875 C 11.851562 -20.96875 9.945312 -20.175781 8.375 -18.59375 C 6.800781 -16.976562 6.015625 -15.054688 6.015625 -12.828125 C 6.015625 -10.585938 6.800781 -8.679688 8.375 -7.109375 C 9.945312 -5.515625 11.851562 -4.71875 14.09375 -4.71875 C 16.320312 -4.71875 18.242188 -5.515625 19.859375 -7.109375 C 21.441406 -8.679688 22.234375 -10.585938 22.234375 -12.828125 C 22.234375 -15.054688 21.441406 -16.976562 19.859375 -18.59375 C 18.242188 -20.175781 16.320312 -20.96875 14.09375 -20.96875 Z M 14.09375 -25.6875 C 16.40625 -25.6875 18.550781 -25.125 20.53125 -24 C 22.5 -22.863281 24.0625 -21.304688 25.21875 -19.328125 C 26.382812 -17.335938 26.96875 -15.171875 26.96875 -12.828125 L 26.96875 -2.328125 C 26.96875 -1.703125 26.734375 -1.160156 26.265625 -0.703125 C 25.796875 -0.234375 25.234375 0 24.578125 0 C 23.941406 0 23.394531 -0.234375 22.9375 -0.703125 C 22.46875 -1.160156 22.234375 -1.703125 22.234375 -2.328125 L 22.234375 -2.90625 C 19.929688 -0.96875 17.21875 0 14.09375 0 C 11.769531 0 9.625 -0.570312 7.65625 -1.71875 C 5.6875 -2.851562 4.128906 -4.410156 2.984375 -6.390625 C 1.835938 -8.359375 1.265625 -10.503906 1.265625 -12.828125 C 1.265625 -15.140625 1.835938 -17.289062 2.984375 -19.28125 C 4.128906 -21.25 5.6875 -22.816406 7.65625 -23.984375 C 9.625 -25.117188 11.769531 -25.6875 14.09375 -25.6875 Z M 14.09375 -25.6875 "/></g></g></g><g fill="#ffffff" fill-opacity="1"><g transform="translate(252.60272, 40.200507)"><g><path d="M 4.625 -39.1875 C 5.28125 -39.1875 5.851562 -38.960938 6.34375 -38.515625 C 6.800781 -38.046875 7.03125 -37.488281 7.03125 -36.84375 L 7.03125 -2.328125 C 7.03125 -1.703125 6.800781 -1.160156 6.34375 -0.703125 C 5.851562 -0.234375 5.28125 0 4.625 0 C 3.988281 0 3.441406 -0.234375 2.984375 -0.703125 C 2.515625 -1.160156 2.28125 -1.703125 2.28125 -2.328125 L 2.28125 -36.84375 C 2.28125 -37.488281 2.515625 -38.046875 2.984375 -38.515625 C 3.429688 -38.960938 3.976562 -39.1875 4.625 -39.1875 Z M 4.625 -39.1875 "/></g></g></g></g></g><g transform="matrix(1, 0, 0, 1, 172, 238)"><g clip-path="url(#c3b225e119)"><g fill="#ffffff" fill-opacity="1"><g transform="translate(0.598357, 40.955328)"><g><path d="M 12.15625 -25.6875 C 13.144531 -25.6875 14.128906 -25.585938 15.109375 -25.390625 C 16.066406 -25.179688 16.878906 -24.941406 17.546875 -24.671875 C 18.191406 -24.390625 18.796875 -24.09375 19.359375 -23.78125 C 19.898438 -23.46875 20.289062 -23.226562 20.53125 -23.0625 C 20.757812 -22.875 20.90625 -22.75 20.96875 -22.6875 C 21.582031 -22.207031 21.890625 -21.601562 21.890625 -20.875 C 21.890625 -20.28125 21.660156 -19.742188 21.203125 -19.265625 C 20.734375 -18.765625 20.191406 -18.515625 19.578125 -18.515625 C 19.066406 -18.515625 18.5625 -18.6875 18.0625 -19.03125 C 17.832031 -19.226562 17.535156 -19.445312 17.171875 -19.6875 C 16.785156 -19.914062 16.097656 -20.1875 15.109375 -20.5 C 14.097656 -20.8125 13.046875 -20.96875 11.953125 -20.96875 C 9.203125 -20.96875 7.828125 -20.113281 7.828125 -18.40625 C 7.828125 -17.882812 8.007812 -17.429688 8.375 -17.046875 C 8.738281 -16.660156 9.210938 -16.367188 9.796875 -16.171875 C 10.367188 -15.972656 10.945312 -15.832031 11.53125 -15.75 C 12.09375 -15.664062 12.65625 -15.625 13.21875 -15.625 C 14.09375 -15.625 14.960938 -15.550781 15.828125 -15.40625 C 16.691406 -15.257812 17.570312 -15.003906 18.46875 -14.640625 C 19.351562 -14.273438 20.140625 -13.816406 20.828125 -13.265625 C 21.484375 -12.703125 22.03125 -11.984375 22.46875 -11.109375 C 22.894531 -10.210938 23.109375 -9.207031 23.109375 -8.09375 C 23.109375 -6.375 22.644531 -4.894531 21.71875 -3.65625 C 20.789062 -2.394531 19.585938 -1.46875 18.109375 -0.875 C 16.617188 -0.257812 14.957031 0.046875 13.125 0.046875 C 11.863281 0.046875 10.671875 -0.0820312 9.546875 -0.34375 C 8.398438 -0.613281 7.421875 -0.976562 6.609375 -1.4375 C 5.796875 -1.882812 5.082031 -2.34375 4.46875 -2.8125 C 3.84375 -3.257812 3.3125 -3.75 2.875 -4.28125 C 2.445312 -4.789062 2.148438 -5.171875 1.984375 -5.421875 C 1.804688 -5.648438 1.664062 -5.847656 1.5625 -6.015625 C 1.363281 -6.296875 1.265625 -6.6875 1.265625 -7.1875 C 1.265625 -7.832031 1.5 -8.382812 1.96875 -8.84375 C 2.414062 -9.289062 2.976562 -9.515625 3.65625 -9.515625 C 4.46875 -9.515625 5.128906 -9.125 5.640625 -8.34375 C 5.722656 -8.195312 5.832031 -8.035156 5.96875 -7.859375 C 6.09375 -7.671875 6.378906 -7.367188 6.828125 -6.953125 C 7.265625 -6.546875 7.738281 -6.191406 8.25 -5.890625 C 8.75 -5.578125 9.421875 -5.296875 10.265625 -5.046875 C 11.109375 -4.796875 12.007812 -4.671875 12.96875 -4.671875 C 13.550781 -4.671875 14.128906 -4.726562 14.703125 -4.84375 C 15.285156 -4.945312 15.867188 -5.125 16.453125 -5.375 C 17.023438 -5.601562 17.492188 -5.957031 17.859375 -6.4375 C 18.222656 -6.894531 18.40625 -7.445312 18.40625 -8.09375 C 18.40625 -8.988281 18.007812 -9.65625 17.21875 -10.09375 C 16.40625 -10.5 14.941406 -10.851562 12.828125 -11.15625 C 12.023438 -11.257812 11.398438 -11.34375 10.953125 -11.40625 C 10.503906 -11.46875 9.894531 -11.582031 9.125 -11.75 C 8.34375 -11.914062 7.71875 -12.097656 7.25 -12.296875 C 6.769531 -12.492188 6.242188 -12.773438 5.671875 -13.140625 C 5.066406 -13.503906 4.609375 -13.910156 4.296875 -14.359375 C 3.960938 -14.804688 3.679688 -15.367188 3.453125 -16.046875 C 3.222656 -16.710938 3.109375 -17.453125 3.109375 -18.265625 C 3.109375 -20.617188 3.941406 -22.445312 5.609375 -23.75 C 7.265625 -25.039062 9.445312 -25.6875 12.15625 -25.6875 Z M 12.15625 -25.6875 "/></g></g></g><g fill="#ffffff" fill-opacity="1"><g transform="translate(24.948304, 40.955328)"><g><path d="M 14.09375 -25.6875 C 16.34375 -25.6875 18.460938 -25.125 20.453125 -24 C 22.441406 -22.863281 24.023438 -21.304688 25.203125 -19.328125 C 25.398438 -18.984375 25.5 -18.597656 25.5 -18.171875 C 25.5 -17.554688 25.265625 -17.007812 24.796875 -16.53125 C 24.316406 -16.03125 23.753906 -15.78125 23.109375 -15.78125 C 22.234375 -15.78125 21.570312 -16.171875 21.125 -16.953125 C 20.394531 -18.191406 19.410156 -19.175781 18.171875 -19.90625 C 16.910156 -20.613281 15.550781 -20.96875 14.09375 -20.96875 C 11.851562 -20.96875 9.945312 -20.175781 8.375 -18.59375 C 6.800781 -16.976562 6.015625 -15.054688 6.015625 -12.828125 C 6.015625 -10.585938 6.800781 -8.679688 8.375 -7.109375 C 9.945312 -5.515625 11.851562 -4.71875 14.09375 -4.71875 C 15.53125 -4.71875 16.878906 -5.078125 18.140625 -5.796875 C 19.378906 -6.503906 20.375 -7.472656 21.125 -8.703125 C 21.570312 -9.472656 22.25 -9.859375 23.15625 -9.859375 C 23.789062 -9.859375 24.335938 -9.628906 24.796875 -9.171875 C 25.265625 -8.703125 25.5 -8.140625 25.5 -7.484375 C 25.5 -7.046875 25.398438 -6.65625 25.203125 -6.3125 C 24.023438 -4.375 22.441406 -2.84375 20.453125 -1.71875 C 18.460938 -0.570312 16.34375 0 14.09375 0 C 11.769531 0 9.625 -0.570312 7.65625 -1.71875 C 5.6875 -2.851562 4.128906 -4.410156 2.984375 -6.390625 C 1.835938 -8.359375 1.265625 -10.503906 1.265625 -12.828125 C 1.265625 -15.140625 1.835938 -17.289062 2.984375 -19.28125 C 4.128906 -21.25 5.6875 -22.816406 7.65625 -23.984375 C 9.625 -25.117188 11.769531 -25.6875 14.09375 -25.6875 Z M 14.09375 -25.6875 "/></g></g></g><g fill="#ffffff" fill-opacity="1"><g transform="translate(51.459935, 40.955328)"><g><path d="M 4.625 -36.65625 C 5.28125 -36.65625 5.851562 -36.421875 6.34375 -35.953125 C 6.800781 -35.472656 7.03125 -34.921875 7.03125 -34.296875 L 7.03125 -23.109375 C 9.164062 -24.828125 11.660156 -25.6875 14.515625 -25.6875 C 16.710938 -25.6875 18.75 -25.140625 20.625 -24.046875 C 22.476562 -22.953125 23.953125 -21.472656 25.046875 -19.609375 C 26.117188 -17.734375 26.65625 -15.695312 26.65625 -13.5 L 26.65625 -2.328125 C 26.65625 -1.679688 26.429688 -1.140625 25.984375 -0.703125 C 25.523438 -0.234375 24.972656 0 24.328125 0 C 23.703125 0 23.15625 -0.234375 22.6875 -0.703125 C 22.21875 -1.160156 21.984375 -1.703125 21.984375 -2.328125 L 21.984375 -13.5 C 21.984375 -15.5625 21.253906 -17.320312 19.796875 -18.78125 C 18.328125 -20.238281 16.566406 -20.96875 14.515625 -20.96875 C 12.460938 -20.96875 10.707031 -20.238281 9.25 -18.78125 C 7.769531 -17.320312 7.03125 -15.5625 7.03125 -13.5 L 7.03125 -2.328125 C 7.03125 -1.703125 6.800781 -1.160156 6.34375 -0.703125 C 5.851562 -0.234375 5.28125 0 4.625 0 C 3.988281 0 3.441406 -0.234375 2.984375 -0.703125 C 2.515625 -1.160156 2.28125 -1.703125 2.28125 -2.328125 L 2.28125 -34.296875 C 2.28125 -34.921875 2.515625 -35.472656 2.984375 -35.953125 C 3.441406 -36.421875 3.988281 -36.65625 4.625 -36.65625 Z M 4.625 -36.65625 "/></g></g></g><g fill="#ffffff" fill-opacity="1"><g transform="translate(80.158093, 40.955328)"><g><path d="M 14.09375 -25.6875 C 16.40625 -25.6875 18.554688 -25.117188 20.546875 -23.984375 C 22.515625 -22.816406 24.082031 -21.25 25.25 -19.28125 C 26.394531 -17.289062 26.96875 -15.140625 26.96875 -12.828125 C 26.96875 -10.503906 26.394531 -8.359375 25.25 -6.390625 C 24.082031 -4.410156 22.515625 -2.851562 20.546875 -1.71875 C 18.554688 -0.570312 16.40625 0 14.09375 0 C 11.769531 0 9.625 -0.570312 7.65625 -1.71875 C 5.6875 -2.851562 4.128906 -4.410156 2.984375 -6.390625 C 1.835938 -8.359375 1.265625 -10.503906 1.265625 -12.828125 C 1.265625 -15.140625 1.835938 -17.289062 2.984375 -19.28125 C 4.128906 -21.25 5.6875 -22.816406 7.65625 -23.984375 C 9.625 -25.117188 11.769531 -25.6875 14.09375 -25.6875 Z M 14.09375 -20.96875 C 11.851562 -20.96875 9.945312 -20.175781 8.375 -18.59375 C 6.800781 -16.976562 6.015625 -15.054688 6.015625 -12.828125 C 6.015625 -10.585938 6.800781 -8.679688 8.375 -7.109375 C 9.945312 -5.515625 11.851562 -4.71875 14.09375 -4.71875 C 16.320312 -4.71875 18.242188 -5.515625 19.859375 -7.109375 C 21.441406 -8.679688 22.234375 -10.585938 22.234375 -12.828125 C 22.234375 -15.054688 21.441406 -16.976562 19.859375 -18.59375 C 18.242188 -20.175781 16.320312 -20.96875 14.09375 -20.96875 Z M 14.09375 -20.96875 "/></g></g></g><g fill="#ffffff" fill-opacity="1"><g transform="translate(108.384154, 40.955328)"><g><path d="M 14.09375 -25.6875 C 16.40625 -25.6875 18.554688 -25.117188 20.546875 -23.984375 C 22.515625 -22.816406 24.082031 -21.25 25.25 -19.28125 C 26.394531 -17.289062 26.96875 -15.140625 26.96875 -12.828125 C 26.96875 -10.503906 26.394531 -8.359375 25.25 -6.390625 C 24.082031 -4.410156 22.515625 -2.851562 20.546875 -1.71875 C 18.554688 -0.570312 16.40625 0 14.09375 0 C 11.769531 0 9.625 -0.570312 7.65625 -1.71875 C 5.6875 -2.851562 4.128906 -4.410156 2.984375 -6.390625 C 1.835938 -8.359375 1.265625 -10.503906 1.265625 -12.828125 C 1.265625 -15.140625 1.835938 -17.289062 2.984375 -19.28125 C 4.128906 -21.25 5.6875 -22.816406 7.65625 -23.984375 C 9.625 -25.117188 11.769531 -25.6875 14.09375 -25.6875 Z M 14.09375 -20.96875 C 11.851562 -20.96875 9.945312 -20.175781 8.375 -18.59375 C 6.800781 -16.976562 6.015625 -15.054688 6.015625 -12.828125 C 6.015625 -10.585938 6.800781 -8.679688 8.375 -7.109375 C 9.945312 -5.515625 11.851562 -4.71875 14.09375 -4.71875 C 16.320312 -4.71875 18.242188 -5.515625 19.859375 -7.109375 C 21.441406 -8.679688 22.234375 -10.585938 22.234375 -12.828125 C 22.234375 -15.054688 21.441406 -16.976562 19.859375 -18.59375 C 18.242188 -20.175781 16.320312 -20.96875 14.09375 -20.96875 Z M 14.09375 -20.96875 "/></g></g></g><g fill="#ffffff" fill-opacity="1"><g transform="translate(136.610214, 40.955328)"><g><path d="M 4.625 -39.1875 C 5.28125 -39.1875 5.851562 -38.960938 6.34375 -38.515625 C 6.800781 -38.046875 7.03125 -37.488281 7.03125 -36.84375 L 7.03125 -2.328125 C 7.03125 -1.703125 6.800781 -1.160156 6.34375 -0.703125 C 5.851562 -0.234375 5.28125 0 4.625 0 C 3.988281 0 3.441406 -0.234375 2.984375 -0.703125 C 2.515625 -1.160156 2.28125 -1.703125 2.28125 -2.328125 L 2.28125 -36.84375 C 2.28125 -37.488281 2.515625 -38.046875 2.984375 -38.515625 C 3.429688 -38.960938 3.976562 -39.1875 4.625 -39.1875 Z M 4.625 -39.1875 "/></g></g></g></g></g></svg>