<svg version="1.2" baseProfile="tiny-ps" xmlns="http://www.w3.org/2000/svg" viewBox="0 0 1296 650" width="1296" height="650">
	<title>NIMT EDU INST Logo</title>
	<style>
		tspan { white-space:pre }
		.shp0 { fill: #09a7e6 } 
		.shp1 { fill: #ffffff } 
	</style>
	<path id="Shape 5" class="shp0" d="M1129.95 352.31L1231.2 72.86L1296 72.86L1194.75 352.31L1129.95 352.31Z" />
	<path id="Shape 5" class="shp0" d="M348.3 48.56L413.1 48.56L380.7 -0.04L348.3 48.56Z" />
	<path id="Shape 1" class="shp1" d="M0 352.31L0 72.86L64.8 72.86L234.9 279.41L234.9 72.86L295.65 72.86L295.65 352.31L222.75 352.31L60.75 153.86L60.75 352.31L0 352.31Z" />
	<path id="Shape 2" class="shp1" d="M348.3 72.86L413.1 72.86L413.1 352.31L348.3 352.31L348.3 72.86Z" />
	<path id="Shape 3" class="shp1" d="M469.8 352.31L469.8 76.91L469.8 72.86L554.85 72.86L656.1 283.46L753.3 72.86L838.35 72.86L838.35 352.31L777.6 352.31L777.6 141.71L680.4 352.31L627.75 352.31L526.5 137.66L526.5 352.31L469.8 352.31Z" />
	<path id="Shape 4" class="shp1" d="M866.7 121.46L866.7 72.86L1142.1 72.86L1142.1 121.46L1036.8 121.46L1036.8 352.31L972 352.31L972 121.46L866.7 121.46Z" />
	<path id="EDUCATIONAL " fill="#ffffff" aria-label="EDUCATIONAL"  d="M0.85 501.61L0.85 377.99L85.15 377.99L85.15 402.09L32.09 402.09L32.09 425.11L81.98 425.11L81.98 449.2L32.09 449.2L32.09 477.52L86.93 477.52L86.93 501.61L0.85 501.61ZM156.78 402.09L145.59 402.09L145.59 477.52L156.78 477.52Q175.93 477.52 185.99 467.83Q196.13 458.14 196.13 439.68Q196.13 421.3 186.07 411.69Q176.01 402.09 156.78 402.09ZM114.35 501.61L114.35 377.99L147.29 377.99Q174.88 377.99 188.34 382.05Q201.89 386.03 211.55 395.63Q220.07 403.99 224.2 414.92Q228.34 425.85 228.34 439.68Q228.34 453.67 224.2 464.68Q220.07 475.61 211.55 483.97Q201.81 493.58 188.18 497.63Q174.55 501.61 147.29 501.61L114.35 501.61ZM252.27 452.1L252.27 377.99L283.51 377.99L283.51 452.1Q283.51 467.41 288.38 474.04Q293.33 480.58 304.44 480.58Q315.64 480.58 320.5 474.04Q325.45 467.41 325.45 452.1L325.45 377.99L356.69 377.99L356.69 452.1Q356.69 478.34 343.79 491.18Q330.89 504.01 304.44 504.01Q278.07 504.01 265.17 491.18Q252.27 478.34 252.27 452.1ZM483.25 469.24L483.25 494.82Q474.65 499.37 465.32 501.69Q455.99 504.01 445.85 504.01Q415.59 504.01 397.9 486.79Q380.22 469.48 380.22 439.93Q380.22 410.29 397.9 393.06Q415.59 375.76 445.85 375.76Q455.99 375.76 465.32 378.08Q474.65 380.4 483.25 384.95L483.25 410.53Q474.57 404.49 466.13 401.67Q457.69 398.86 448.36 398.86Q431.65 398.86 422.08 409.79Q412.51 420.72 412.51 439.93Q412.51 459.05 422.08 469.98Q431.65 480.91 448.36 480.91Q457.69 480.91 466.13 478.09Q474.57 475.28 483.25 469.24ZM590.26 501.61L582.63 479.09L533.79 479.09L526.09 501.61L494.69 501.61L539.55 377.99L576.79 377.99L621.66 501.61L590.26 501.61ZM558.21 406.97L541.58 456.15L574.76 456.15L558.21 406.97ZM610.38 402.09L610.38 377.99L722.02 377.99L722.02 402.09L681.86 402.09L681.86 501.61L650.62 501.61L650.62 402.09L610.38 402.09ZM738.16 501.61L738.16 377.99L769.4 377.99L769.4 501.61L738.16 501.61ZM855.31 398.86Q841.03 398.86 833.16 409.62Q825.29 420.39 825.29 439.93Q825.29 459.38 833.16 470.15Q841.03 480.91 855.31 480.91Q869.67 480.91 877.54 470.15Q885.41 459.38 885.41 439.93Q885.41 420.39 877.54 409.62Q869.67 398.86 855.31 398.86ZM855.31 375.76Q884.52 375.76 901.07 392.82Q917.62 409.87 917.62 439.93Q917.62 469.9 901.07 486.95Q884.52 504.01 855.31 504.01Q826.19 504.01 809.55 486.95Q793 469.9 793 439.93Q793 409.87 809.55 392.82Q826.19 375.76 855.31 375.76ZM941.23 501.61L941.23 377.99L976.11 377.99L1020.17 462.78L1020.17 377.99L1049.78 377.99L1049.78 501.61L1014.89 501.61L970.84 416.83L970.84 501.61L941.23 501.61ZM1161.41 501.61L1153.79 479.09L1104.95 479.09L1097.24 501.61L1065.84 501.61L1110.71 377.99L1147.95 377.99L1192.81 501.61L1161.41 501.61ZM1129.37 406.97L1112.74 456.15L1145.92 456.15L1129.37 406.97ZM1208.88 501.61L1208.88 377.99L1240.11 377.99L1240.11 477.52L1294.95 477.52L1294.95 501.61L1208.88 501.61Z" />
	<path id="INSTITUTIONS " fill="#ffffff" aria-label="INSTITUTIONS"  d="M1.85 646.61L1.85 522.99L33.09 522.99L33.09 646.61L1.85 646.61ZM63.67 646.61L63.67 522.99L98.56 522.99L142.61 607.78L142.61 522.99L172.23 522.99L172.23 646.61L137.34 646.61L93.29 561.83L93.29 646.61L63.67 646.61ZM287.02 526.89L287.02 553.05Q277.04 548.5 267.55 546.18Q258.06 543.86 249.62 543.86Q238.43 543.86 233.07 547.01Q227.72 550.15 227.72 556.78Q227.72 561.74 231.29 564.56Q234.94 567.29 244.43 569.28L257.74 572.01Q277.94 576.15 286.46 584.59Q294.97 593.04 294.97 608.61Q294.97 629.06 283.05 639.07Q271.2 649.01 246.78 649.01Q235.26 649.01 223.66 646.77Q212.06 644.54 200.46 640.15L200.46 613.24Q212.06 619.53 222.85 622.76Q233.72 625.91 243.78 625.91Q254 625.91 259.44 622.43Q264.88 618.95 264.88 612.5Q264.88 606.7 261.14 603.56Q257.49 600.41 246.46 597.92L234.37 595.19Q216.2 591.22 207.76 582.52Q199.4 573.83 199.4 559.09Q199.4 540.63 211.09 530.69Q222.77 520.76 244.67 520.76Q254.65 520.76 265.2 522.33Q275.75 523.82 287.02 526.89ZM307.96 547.09L307.96 522.99L419.59 522.99L419.59 547.09L379.43 547.09L379.43 646.61L348.2 646.61L348.2 547.09L307.96 547.09ZM435.73 646.61L435.73 522.99L466.97 522.99L466.97 646.61L435.73 646.61ZM483.11 547.09L483.11 522.99L594.75 522.99L594.75 547.09L554.59 547.09L554.59 646.61L523.35 646.61L523.35 547.09L483.11 547.09ZM610.89 597.1L610.89 522.99L642.13 522.99L642.13 597.1Q642.13 612.41 647 619.04Q651.95 625.58 663.06 625.58Q674.26 625.58 679.12 619.04Q684.07 612.41 684.07 597.1L684.07 522.99L715.31 522.99L715.31 597.1Q715.31 623.34 702.41 636.18Q689.51 649.01 663.06 649.01Q636.69 649.01 623.79 636.18Q610.89 623.34 610.89 597.1ZM731.37 547.09L731.37 522.99L843.01 522.99L843.01 547.09L802.85 547.09L802.85 646.61L771.61 646.61L771.61 547.09L731.37 547.09ZM859.15 646.61L859.15 522.99L890.39 522.99L890.39 646.61L859.15 646.61ZM976.3 543.86Q962.02 543.86 954.15 554.62Q946.28 565.39 946.28 584.93Q946.28 604.38 954.15 615.15Q962.02 625.91 976.3 625.91Q990.66 625.91 998.53 615.15Q1006.4 604.38 1006.4 584.93Q1006.4 565.39 998.53 554.62Q990.66 543.86 976.3 543.86ZM976.3 520.76Q1005.51 520.76 1022.06 537.82Q1038.61 554.87 1038.61 584.93Q1038.61 614.9 1022.06 631.95Q1005.51 649.01 976.3 649.01Q947.18 649.01 930.55 631.95Q913.99 614.9 913.99 584.93Q913.99 554.87 930.55 537.82Q947.18 520.76 976.3 520.76ZM1062.22 646.61L1062.22 522.99L1097.1 522.99L1141.16 607.78L1141.16 522.99L1170.77 522.99L1170.77 646.61L1135.88 646.61L1091.83 561.83L1091.83 646.61L1062.22 646.61ZM1285.57 526.89L1285.57 553.05Q1275.59 548.5 1266.1 546.18Q1256.61 543.86 1248.17 543.86Q1236.97 543.86 1231.62 547.01Q1226.26 550.15 1226.26 556.78Q1226.26 561.74 1229.83 564.56Q1233.48 567.29 1242.98 569.28L1256.28 572.01Q1276.48 576.15 1285 584.59Q1293.52 593.04 1293.52 608.61Q1293.52 629.06 1281.59 639.07Q1269.75 649.01 1245.33 649.01Q1233.81 649.01 1222.21 646.77Q1210.61 644.54 1199 640.15L1199 613.24Q1210.61 619.53 1221.4 622.76Q1232.27 625.91 1242.33 625.91Q1252.55 625.91 1257.99 622.43Q1263.42 618.95 1263.42 612.5Q1263.42 606.7 1259.69 603.56Q1256.04 600.41 1245 597.92L1232.92 595.19Q1214.74 591.22 1206.31 582.52Q1197.95 573.83 1197.95 559.09Q1197.95 540.63 1209.63 530.69Q1221.31 520.76 1243.22 520.76Q1253.2 520.76 1263.75 522.33Q1274.29 523.82 1285.57 526.89Z" />
</svg>